<svg width="308" height="227" viewBox="0 0 308 227" fill="none" xmlns="http://www.w3.org/2000/svg">
<rect x="184.961" y="25.5666" width="123.663" height="156.52" rx="15.5" transform="rotate(8.26 184.961 25.5666)" fill="white" stroke="#D8D8D8"/>
<rect x="189.943" y="58.5147" width="106.268" height="5.76466" rx="2.88233" transform="rotate(8.26 189.943 58.5147)" fill="#F0F3F8" stroke="#D8D8D8"/>
<rect x="188.277" y="69.991" width="106.268" height="5.76466" rx="2.88233" transform="rotate(8.26 188.277 69.991)" fill="#F0F3F8" stroke="#D8D8D8"/>
<rect x="186.611" y="81.4673" width="106.268" height="5.76466" rx="2.88233" transform="rotate(8.26 186.611 81.4673)" fill="#F0F3F8" stroke="#D8D8D8"/>
<rect x="33.9695" y="44.7959" width="123.663" height="156.52" rx="15.5" transform="rotate(-8.26 33.9695 44.7959)" fill="white" stroke="#D8D8D8"/>
<rect x="45.2262" y="79.7602" width="106.268" height="5.76466" rx="2.88233" transform="rotate(-12.8549 45.2262 79.7602)" fill="#F0F3F8" stroke="#D8D8D8"/>
<rect x="47.8062" y="91.066" width="106.268" height="5.76466" rx="2.88233" transform="rotate(-12.8549 47.8062 91.066)" fill="#F0F3F8" stroke="#D8D8D8"/>
<rect x="50.3863" y="102.372" width="106.268" height="5.76466" rx="2.88233" transform="rotate(-12.8549 50.3863 102.372)" fill="#F0F3F8" stroke="#D8D8D8"/>
<rect x="104.5" y="24.5" width="128" height="162" rx="15.5" fill="white" stroke="#D8D8D8"/>
<circle cx="168.5" cy="105.5" r="12.25" fill="#F0F3F8" stroke="#D8D8D8" stroke-width="0.5"/>
<mask id="path-11-inside-1_2014_194" fill="white">
<path d="M167.112 112.032V98.704H169.408V112.032H167.112ZM161.848 106.432V104.304H174.672V106.432H161.848Z"/>
</mask>
<path d="M167.112 112.032V98.704H169.408V112.032H167.112ZM161.848 106.432V104.304H174.672V106.432H161.848Z" fill="#D8D8D8"/>
<path d="M167.112 112.032H166.112C166.112 112.584 166.56 113.032 167.112 113.032V112.032ZM167.112 98.704V97.704C166.56 97.704 166.112 98.1517 166.112 98.704H167.112ZM169.408 98.704H170.408C170.408 98.1517 169.96 97.704 169.408 97.704V98.704ZM169.408 112.032V113.032C169.96 113.032 170.408 112.584 170.408 112.032H169.408ZM161.848 106.432H160.848C160.848 106.984 161.296 107.432 161.848 107.432V106.432ZM161.848 104.304V103.304C161.296 103.304 160.848 103.752 160.848 104.304H161.848ZM174.672 104.304H175.672C175.672 103.752 175.224 103.304 174.672 103.304V104.304ZM174.672 106.432V107.432C175.224 107.432 175.672 106.984 175.672 106.432H174.672ZM167.112 112.032H168.112V98.704H167.112H166.112V112.032H167.112ZM167.112 98.704V99.704H169.408V98.704V97.704H167.112V98.704ZM169.408 98.704H168.408V112.032H169.408H170.408V98.704H169.408ZM169.408 112.032V111.032H167.112V112.032V113.032H169.408V112.032ZM161.848 106.432H162.848V104.304H161.848H160.848V106.432H161.848ZM161.848 104.304V105.304H174.672V104.304V103.304H161.848V104.304ZM174.672 104.304H173.672V106.432H174.672H175.672V104.304H174.672ZM174.672 106.432V105.432H161.848V106.432V107.432H174.672V106.432Z" fill="#D8D8D8" mask="url(#path-11-inside-1_2014_194)"/>
</svg>
