<svg width="512" height="512" viewBox="0 0 512 512" fill="none" xmlns="http://www.w3.org/2000/svg">
<rect width="512" height="512" fill="#090909"/>
<path d="M512 512H301.975C319.088 483.592 330.272 453.966 335.526 423.122L288.782 298.394L85.958 374.406L119.016 462.614L218.461 425.346C209.56 455.166 190.689 475.48 161.848 486.289C131.508 497.659 106.157 498.403 85.7939 488.521C65.4309 478.638 49.4234 458.153 37.7725 427.064C27.6657 400.096 26.2894 376.477 33.6436 356.207C40.8575 335.562 56.451 320.749 80.4229 311.765C93.1578 306.992 104.862 305.168 115.536 306.294C126.07 307.045 135.245 310.441 143.062 316.481L274.532 267.211C252.396 226.383 220.146 199.597 177.779 186.854C135.788 173.972 88.76 177.286 36.6963 196.798C23.5913 201.709 11.3591 207.306 0 213.588V0H512V512Z" fill="#F2F2F2"/>
<path d="M349.338 334.884L332.516 319.291L332.441 319.318L339.235 338.469L322.497 344.407L303.559 291.027L328.439 282.2C332.762 280.666 336.733 280.134 340.352 280.605C343.953 281.025 346.98 282.3 349.433 284.429C351.918 286.489 353.75 289.179 354.927 292.496C356.193 296.065 356.311 299.588 355.281 303.066C354.302 306.526 352.166 309.519 348.874 312.045L367.734 328.358L349.338 334.884ZM328.482 308.159L335.117 305.806C336.725 305.235 337.807 304.455 338.361 303.466C338.898 302.427 338.89 301.128 338.337 299.57C337.838 298.163 337.018 297.208 335.878 296.707C334.789 296.188 333.465 296.205 331.907 296.758L325.272 299.112L328.482 308.159ZM381.39 339.811L382.383 399.557L360.745 407.234L323.863 360.22L341.656 353.907L365.69 386.72L363.596 346.124L381.39 339.811ZM411.133 344.284L413.46 350.843L430.047 344.959L434.514 357.55L417.927 363.434L420.601 370.974L439.45 364.287L444.185 377.632L408.598 390.257L389.66 336.877L425.247 324.252L429.981 337.597L411.133 344.284Z" fill="#090909"/>
<path d="M403.729 316.182C398.702 317.965 393.659 318.425 388.599 317.56C383.589 316.678 379.112 314.588 375.169 311.289C371.226 307.991 368.327 303.729 366.473 298.501C364.618 293.274 364.182 288.137 365.165 283.091C366.148 278.046 368.315 273.627 371.667 269.835C375.051 265.974 379.256 263.153 384.282 261.369C389.309 259.586 394.327 259.136 399.337 260.018C404.329 260.85 408.772 262.924 412.664 266.24C416.607 269.538 419.506 273.801 421.361 279.028C423.215 284.256 423.651 289.392 422.668 294.438C421.736 299.466 419.577 303.91 416.193 307.77C412.86 311.613 408.705 314.417 403.729 316.182ZM398.192 300.575C401.509 299.398 403.698 297.433 404.759 294.68C405.801 291.877 405.681 288.666 404.397 285.047C403.095 281.377 401.165 278.808 398.606 277.339C396.03 275.82 393.083 275.648 389.766 276.825C386.398 278.02 384.193 280.019 383.15 282.823C382.09 285.576 382.21 288.787 383.512 292.456C384.796 296.075 386.726 298.644 389.302 300.164C391.861 301.633 394.824 301.77 398.192 300.575Z" fill="#01BD4D"/>
</svg>
